<svg width="128" height="174" viewBox="0 0 128 174" fill="none" xmlns="http://www.w3.org/2000/svg"><path fill-rule="evenodd" clip-rule="evenodd" d="M63.874 26.43c-9.732 0-17.62 7.889-17.62 17.62v24.723c6.158-.3 12.233-.495 17.62-.495 5.386 0 11.461.195 17.62.495V44.05c0-9.731-7.889-17.62-17.62-17.62zM19.823 44.05v27.004C10.202 73.816 2.957 82.07 1.87 92.364.89 101.653 0 112.475 0 121.14s.89 19.486 1.87 28.774c1.272 12.046 10.978 21.3 23.055 22.227 12.037.924 27.148 1.86 38.949 1.86 11.8 0 26.911-.936 38.948-1.86 12.077-.927 21.783-10.181 23.054-22.227.981-9.288 1.871-20.109 1.871-28.774s-.89-19.487-1.871-28.774c-1.086-10.294-8.331-18.549-17.952-21.311V44.05C107.924 19.722 88.202 0 63.874 0 39.545 0 19.823 19.722 19.823 44.05zm58.891 63.664c0 4.459-2.012 8.447-5.178 11.107v17.893a9.321 9.321 0 01-9.322 9.321 9.321 9.321 0 01-9.321-9.321v-17.893a14.469 14.469 0 01-5.179-11.107c0-8.008 6.492-14.5 14.5-14.5s14.5 6.492 14.5 14.5z" fill="#9693E6"/></svg>