<?xml version="1.0"?>
<svg xmlns="http://www.w3.org/2000/svg" xmlns:xlink="http://www.w3.org/1999/xlink" xmlns:svgjs="http://svgjs.com/svgjs" version="1.1" width="512" height="512" x="0" y="0" viewBox="0 0 512.00037 512" style="enable-background:new 0 0 512 512" xml:space="preserve" class=""><g transform="matrix(2.9085361479749647e-16,0.9499999999999995,-0.9500000000000004,2.908536147974962e-16,499.19807896614077,12.798109161853802)"><path xmlns="http://www.w3.org/2000/svg" d="m488.785156 23.214844c-14.972656-14.96875-34.878906-23.214844-56.050781-23.214844s-41.082031 8.246094-56.050781 23.21875c-25.414063 25.414062-359.242188 446.546875-373.4375 464.460938-4.734375 5.96875-4.238282 14.539062 1.148437 19.921874 2.910157 2.914063 6.75 4.394532 10.609375 4.394532 3.28125 0 6.570313-1.070313 9.3125-3.242188 17.914063-14.199218 439.050782-348.019531 464.464844-373.4375 14.972656-14.96875 23.21875-34.875 23.21875-56.050781 0-21.171875-8.242188-41.078125-23.214844-56.050781zm-45.445312 66.65625-45.445313 45.441406c-2.925781 2.929688-6.765625 4.394531-10.605469 4.394531-3.839843 0-7.675781-1.464843-10.605468-4.394531-5.855469-5.855469-5.855469-15.355469 0-21.210938l45.445312-45.441406c5.855469-5.855468 15.355469-5.855468 21.210938 0 5.859375 5.855469 5.859375 15.355469 0 21.210938zm0 0" fill="#e1cb76" data-original="#000000" style=""/></g></svg>
