<?xml version="1.0"?>
<svg xmlns="http://www.w3.org/2000/svg" xmlns:xlink="http://www.w3.org/1999/xlink" xmlns:svgjs="http://svgjs.com/svgjs" version="1.1" width="512" height="512" x="0" y="0" viewBox="0 0 512 512" style="enable-background:new 0 0 512 512" xml:space="preserve" class=""><g transform="matrix(1.06,0,0,1.06,-15.360000000000014,-15.101219787597671)"><path xmlns="http://www.w3.org/2000/svg" d="m256 111.687a240 240 0 0 0 -240 240v32a8 8 0 0 0 8 8h464a8 8 0 0 0 8-8v-32a240 240 0 0 0 -240-240zm161.42 132.549a8 8 0 0 0 11.13 2.031l18.009-12.453a221.723 221.723 0 0 1 13.292 24.776l-37.1 15.368a184.655 184.655 0 0 0 -31.174-46.534l28.363-28.362a226.561 226.561 0 0 1 17.694 21.472l-18.184 12.572a8 8 0 0 0 -2.03 11.13zm30.734 68.915a8 8 0 0 0 7.838 6.442 8.1 8.1 0 0 0 1.569-.155l19.539-3.888a226.236 226.236 0 0 1 2.742 28.137h-40.026a182.878 182.878 0 0 0 -10.914-54.96l37.072-15.355a221.53 221.53 0 0 1 8.017 26.483l-19.552 3.889a8 8 0 0 0 -6.285 9.407zm-413.254 2.399 19.541 3.888a8.1 8.1 0 0 0 1.569.155 8 8 0 0 0 1.553-15.849l-19.552-3.889a221.53 221.53 0 0 1 8.017-26.483l37.072 15.355a182.878 182.878 0 0 0 -10.914 54.96h-40.03a226.236 226.236 0 0 1 2.744-28.137zm30.543-81.736 18.007 12.453a8 8 0 0 0 9.1-13.161l-18.183-12.572a226.561 226.561 0 0 1 17.694-21.472l28.363 28.362a184.655 184.655 0 0 0 -31.174 46.534l-37.1-15.368a221.723 221.723 0 0 1 13.291-24.776zm59.669-63.95 12.244 18.276a8 8 0 1 0 13.292-8.907l-12.248-18.275a221.289 221.289 0 0 1 24.5-13.122l15.368 37.1a184.654 184.654 0 0 0 -46.533 31.173l-28.363-28.362a226.282 226.282 0 0 1 21.738-17.883zm79.339-36.235 3.69 19.542a8 8 0 1 0 15.722-2.969l-3.712-19.663a226.344 226.344 0 0 1 27.851-2.7v40.029a182.871 182.871 0 0 0 -54.959 10.914l-15.356-37.072a221.562 221.562 0 0 1 26.762-8.081zm90.067 25.919a7.993 7.993 0 0 0 9.345-6.377l3.69-19.542a221.562 221.562 0 0 1 26.764 8.084l-15.356 37.072a182.871 182.871 0 0 0 -54.961-10.914v-40.029a226.344 226.344 0 0 1 27.851 2.7l-3.712 19.658a8 8 0 0 0 6.377 9.348zm69.031 30.785a8 8 0 0 0 11.1-2.193l12.244-18.276a226.282 226.282 0 0 1 21.735 17.884l-28.366 28.362a184.654 184.654 0 0 0 -46.533-31.173l15.368-37.1a221.289 221.289 0 0 1 24.5 13.122l-12.243 18.275a8 8 0 0 0 2.193 11.099zm-163.124 129.675-96.38-39.922a168.613 168.613 0 0 1 27.694-41.347l73.734 73.735a64.343 64.343 0 0 0 -5.048 7.534zm16.362-18.848-73.734-73.735a168.594 168.594 0 0 1 41.347-27.693l39.922 96.38a64.343 64.343 0 0 0 -7.535 5.048zm22.313-11.191-39.923-96.381a166.95 166.95 0 0 1 48.823-9.707v104.319a63.594 63.594 0 0 0 -8.9 1.769zm24.9-106.088a166.95 166.95 0 0 1 48.828 9.707l-39.928 96.381a63.594 63.594 0 0 0 -8.9-1.769zm63.6 15.851a168.613 168.613 0 0 1 41.346 27.693l-73.734 73.735a64.123 64.123 0 0 0 -7.533-5.048zm-21.074 112.742 73.735-73.735a168.613 168.613 0 0 1 27.694 41.347l-96.38 39.922a64.225 64.225 0 0 0 -5.049-7.534zm-208.626-17.615 96.382 39.922a63.579 63.579 0 0 0 -1.765 8.906h-104.317a166.942 166.942 0 0 1 9.7-48.828zm158.1 8.828a48.069 48.069 0 0 1 47.321 40h-94.642a48.069 48.069 0 0 1 47.321-40zm63.482 40a63.579 63.579 0 0 0 -1.765-8.906l96.383-39.922a166.942 166.942 0 0 1 9.706 48.828zm-287.482 32v-16h448v16z" fill="#edde8c" data-original="#000000" style=""/></g></svg>
